<?xml version="1.0" encoding="utf-8"?>
<!-- Generator: Adobe Illustrator 19.2.0, SVG Export Plug-In . SVG Version: 6.00 Build 0)  -->
<svg version="1.1" id="Layer_1" xmlns:sketch="http://www.bohemiancoding.com/sketch/ns"
	 xmlns="http://www.w3.org/2000/svg" xmlns:xlink="http://www.w3.org/1999/xlink" x="0px" y="0px" viewBox="0 0 18 18"
	 style="enable-background:new 0 0 18 18;" xml:space="preserve">
<style type="text/css">
	.st0{fill:#666666;}
</style>
<title></title>
<desc></desc>
<path class="st0" d="M16,0H6C4.9,0,4,0.9,4,2v2v2v6c0,1.1,0.9,2,2,2h5h4h1c1.1,0,2-0.9,2-2V2C18,0.9,17.1,0,16,0z M16,12H6V2h10V12z
	"/>
<path class="st0" d="M10,16H8H6H4H2v-2v-2v-2V8V4H0v4v2v2v2v2c0,1.1,0.9,2,2,2h2h2h2h2h4v-2H10z"/>
</svg>
