<?xml version="1.0" encoding="utf-8"?>
<!-- Generator: Adobe Illustrator 19.2.0, SVG Export Plug-In . SVG Version: 6.00 Build 0)  -->
<svg version="1.1" id="Capa_1" xmlns="http://www.w3.org/2000/svg" xmlns:xlink="http://www.w3.org/1999/xlink" x="0px" y="0px"
	 viewBox="0 0 28 28" style="enable-background:new 0 0 28 28;" xml:space="preserve">
<style type="text/css">
	.st0{fill:#666666;}
</style>
<path class="st0" d="M2,14c0,6.6,5.4,12,12,12s12-5.4,12-12S20.6,2,14,2S2,7.4,2,14 M0,14C0,6.3,6.3,0,14,0s14,6.3,14,14
	s-6.3,14-14,14S0,21.7,0,14L0,14z M8,15l0-2h5V8h2v5l5,0v2l-5,0v5h-2l0-5L8,15z"/>
</svg>
