<?xml version="1.0" encoding="utf-8"?>
<!-- Generator: Adobe Illustrator 19.2.0, SVG Export Plug-In . SVG Version: 6.00 Build 0)  -->
<svg version="1.1" id="Layer_1" xmlns="http://www.w3.org/2000/svg" xmlns:xlink="http://www.w3.org/1999/xlink" x="0px" y="0px"
	 viewBox="0 0 12.2 8.6" style="enable-background:new 0 0 12.2 8.6;" xml:space="preserve">
<style type="text/css">
	.st0{fill:#666666;}
</style>
<path class="st0" d="M3.9,1L3.9,1l1.5,4H2.5L3.9,1z M3.3,0L0,8.6h1.2l1-2.6h3.6l0.9,2.6h1.3L4.6,0H3.3z"/>
<g>
	<path class="st0" d="M12.1,8.1c-0.1,0-0.1-0.1-0.3-0.1h-0.4L9,1.7H6.6c-0.1,0-0.2,0-0.3,0.1C6.3,1.8,6.2,1.9,6.2,2
		c0,0.1,0,0.1,0.1,0.2c0.1,0,0.1,0.1,0.3,0.1H8L7.2,4.5l0.3,0.7l1.1-3h0.2l1.4,3.6H7.7l0.2,0.5h2.4l0.7,1.8H10c-0.1,0-0.2,0-0.3,0.1
		c-0.1,0-0.1,0.1-0.1,0.2c0,0.1,0,0.1,0.1,0.2c0.1,0,0.1,0.1,0.3,0.1h1.8c0.1,0,0.2,0,0.3-0.1c0.1,0,0.1-0.1,0.1-0.2
		C12.2,8.2,12.1,8.2,12.1,8.1"/>
</g>
</svg>
