<svg xmlns="http://www.w3.org/2000/svg" width="19.78" height="20" viewBox="0 0 19.78 20">
  <defs>
    <style>
      .cls-1 {
        fill: #353b45;
        fill-rule: evenodd;
        opacity: 0.6;
      }
    </style>
  </defs>
  <path id="ic_search" class="cls-1" d="M1377.97,125.426a7.382,7.382,0,0,1-10.25-1.127,7.56,7.56,0,0,1,.3-9.947,7.385,7.385,0,0,1,9.88-.838,7.593,7.593,0,0,1,1.37,10.618,1.242,1.242,0,0,1,.17.118c2.01,2.029,4.01,4.059,6.03,6.088a0.954,0.954,0,0,1,.31.9,0.9,0.9,0,0,1-.64.718,0.877,0.877,0,0,1-.94-0.244c-0.64-.638-1.27-1.278-1.9-1.918-1.4-1.408-2.79-2.816-4.19-4.224C1378.07,125.52,1378.02,125.476,1377.97,125.426Zm-4.54-11.554a5.625,5.625,0,1,0,5.56,5.617A5.608,5.608,0,0,0,1373.43,113.872Z" transform="translate(-1366 -112)"/>
</svg>
